<?xml version="1.0" encoding="utf-8"?>
<!-- Generator: Adobe Illustrator 22.0.0, SVG Export Plug-In . SVG Version: 6.00 Build 0)  -->
<svg version="1.1" id="Layer_1" xmlns="http://www.w3.org/2000/svg" xmlns:xlink="http://www.w3.org/1999/xlink" x="0px" y="0px"
	 viewBox="0 0 180 48" style="enable-background:new 0 0 180 48;" xml:space="preserve">
<style type="text/css">
	.st0{fill:#E6E6E6;}
</style>
<g>
	<polygon class="st0" points="45,31.9 28.8,31.9 22.7,46 21.6,27.4 21,16.1 27.2,20.2 30.7,22.5 31,22.7 	"/>
</g>
<g>
	<path class="st0" d="M27.2,7v12.3l-5.8-3.8c-0.1-0.1-0.3-0.1-0.4-0.1c-0.1,0-0.3,0-0.4,0.1c-0.2,0.1-0.4,0.4-0.4,0.7l0.6,11.2H7.2
		V7H27.2z"/>
</g>
<rect x="30" y="4.2" class="st0" width="1" height="0"/>
<rect x="30" y="5.1" class="st0" width="1" height="1"/>
<rect x="30" y="7.1" class="st0" width="1" height="1"/>
<rect x="30" y="9" class="st0" width="1" height="1"/>
<rect x="30" y="10.9" class="st0" width="1" height="1"/>
<rect x="30" y="12.8" class="st0" width="1" height="1"/>
<rect x="30" y="14.8" class="st0" width="1" height="1"/>
<rect x="30" y="16.7" class="st0" width="1" height="1"/>
<rect x="30" y="18.6" class="st0" width="1" height="1"/>
<rect x="30" y="20.5" class="st0" width="1" height="1"/>
<rect x="3.4" y="4.2" class="st0" width="1" height="0"/>
<rect x="3.4" y="5.1" class="st0" width="1" height="1"/>
<rect x="3.4" y="7.1" class="st0" width="1" height="1"/>
<rect x="3.4" y="9" class="st0" width="1" height="1"/>
<rect x="3.4" y="10.9" class="st0" width="1" height="1"/>
<rect x="3.4" y="12.8" class="st0" width="1" height="1"/>
<rect x="3.4" y="14.8" class="st0" width="1" height="1"/>
<rect x="3.4" y="16.7" class="st0" width="1" height="1"/>
<rect x="3.4" y="18.6" class="st0" width="1" height="1"/>
<rect x="3.4" y="20.5" class="st0" width="1" height="1"/>
<rect x="3.4" y="22.5" class="st0" width="1" height="1"/>
<rect x="3.4" y="24.4" class="st0" width="1" height="1"/>
<rect x="3.4" y="26.3" class="st0" width="1" height="1"/>
<rect x="3.4" y="28.2" class="st0" width="1" height="1"/>
<rect x="3.4" y="30.2" class="st0" width="1" height="0"/>
<rect x="3.4" y="3.2" class="st0" width="1" height="1"/>
<rect x="5.3" y="3.2" class="st0" width="1" height="1"/>
<rect x="7.2" y="3.2" class="st0" width="1" height="1"/>
<rect x="9.1" y="3.2" class="st0" width="1" height="1"/>
<rect x="11" y="3.2" class="st0" width="1" height="1"/>
<rect x="12.9" y="3.2" class="st0" width="1" height="1"/>
<rect x="14.8" y="3.2" class="st0" width="1" height="1"/>
<rect x="16.7" y="3.2" class="st0" width="1" height="1"/>
<rect x="18.6" y="3.2" class="st0" width="1" height="1"/>
<rect x="20.5" y="3.2" class="st0" width="1" height="1"/>
<rect x="22.4" y="3.2" class="st0" width="1" height="1"/>
<rect x="24.3" y="3.2" class="st0" width="1" height="1"/>
<rect x="26.2" y="3.2" class="st0" width="1" height="1"/>
<rect x="28.1" y="3.2" class="st0" width="1" height="1"/>
<rect x="30" y="3.2" class="st0" width="1" height="1"/>
<rect x="3.4" y="30.2" class="st0" width="1" height="1"/>
<rect x="5.3" y="30.2" class="st0" width="1" height="1"/>
<rect x="7.2" y="30.2" class="st0" width="1" height="1"/>
<rect x="9.1" y="30.2" class="st0" width="1" height="1"/>
<rect x="11" y="30.2" class="st0" width="1" height="1"/>
<rect x="12.9" y="30.2" class="st0" width="1" height="1"/>
<rect x="14.8" y="30.2" class="st0" width="1" height="1"/>
<rect x="16.7" y="30.2" class="st0" width="1" height="1"/>
<rect x="18.6" y="30.2" class="st0" width="1" height="1"/>
<rect x="20.5" y="30.2" class="st0" width="1" height="1"/>
<path class="st0" d="M48.8,9.2c-0.7,0.5-1,1.3-1,2.4v0.9c0,0.1,0.1,0.1,0.2,0.1h5.2c0.3,0,0.5,0.1,0.5,0.2v0.3
	c0,0.2-0.2,0.2-0.5,0.2H48c-0.1,0-0.2,0-0.2,0.1v11.2c0,0.2-0.2,0.2-0.5,0.2h-0.9c-0.3,0-0.5-0.1-0.5-0.2V13.5
	c0-0.1-0.1-0.1-0.2-0.1h-2.8c-0.3,0-0.5-0.1-0.5-0.2v-0.3c0-0.2,0.2-0.2,0.5-0.2h2.8c0.1,0,0.2,0,0.2-0.1v-0.9c0-1.4,0.5-2.4,1.4-3
	c1-0.6,2.7-1,5.1-1h1c0.3,0,0.5,0.1,0.5,0.2v0.4c0,0.2-0.2,0.2-0.5,0.2h-0.9C50.7,8.4,49.4,8.7,48.8,9.2z"/>
<path class="st0" d="M66.4,12.7c0.1,0,0.2,0.1,0.3,0.1c0.1,0.1,0,0.1,0,0.2l-0.4,0.5c-0.1,0.1-0.3,0.2-0.6,0.1
	c-0.6-0.1-1.3-0.2-2.2-0.2c-1.7,0-3.1,0.4-4.2,1.1c-1.1,0.7-1.7,1.6-1.7,2.6v7.5c0,0.2-0.2,0.2-0.5,0.2h-1c-0.3,0-0.5-0.1-0.5-0.2
	V12.8c0-0.2,0.2-0.2,0.5-0.2h1c0.3,0,0.5,0.1,0.5,0.2v1.7c0,0,0,0.1,0.1,0.1c0.1,0,0.1,0,0.1-0.1c0.6-0.7,1.4-1.2,2.4-1.5
	c1-0.4,2.2-0.5,3.6-0.5C64.9,12.5,65.7,12.5,66.4,12.7z"/>
<path class="st0" d="M79.9,23.7c1.1-0.4,1.8-0.9,2.3-1.5c0.1-0.1,0.3-0.2,0.6-0.2l0.8,0c0.2,0,0.3,0.1,0.3,0.1
	c0.1,0.1,0.1,0.1,0,0.2c-0.5,0.8-1.5,1.5-2.9,2c-1.4,0.5-3.1,0.8-5.1,0.8c-2.2,0-4.1-0.3-5.5-0.9c-1.5-0.6-2.3-1.4-2.6-2.5
	c-0.1-0.4-0.2-0.8-0.3-1.4c0-0.5-0.1-1.1-0.1-1.6c0-1.4,0.1-2.3,0.2-2.9c0.2-1,1.1-1.9,2.6-2.5c1.5-0.6,3.3-1,5.6-1
	c2.4,0,4.3,0.3,5.8,1c1.5,0.7,2.3,1.5,2.5,2.6c0.1,0.7,0.2,1.6,0.2,2.8c0,0.2-0.2,0.2-0.5,0.2H69.7c-0.1,0-0.2,0-0.2,0.1
	c0,1.2,0,1.9,0.1,2.4c0.2,0.8,0.8,1.5,2,2c1.2,0.5,2.6,0.8,4.4,0.8C77.5,24.3,78.8,24.1,79.9,23.7z M71.5,14c-1.1,0.5-1.8,1.2-2,2
	c-0.1,0.4-0.1,1.1-0.1,2.1c0,0.1,0.1,0.1,0.2,0.1h12.5c0.1,0,0.2,0,0.2-0.1c0-0.8-0.1-1.5-0.2-2.1c-0.2-0.8-0.8-1.5-2-2
	c-1.2-0.5-2.6-0.8-4.4-0.8C74.1,13.2,72.7,13.5,71.5,14z"/>
<path class="st0" d="M98.7,23.7c1.1-0.4,1.8-0.9,2.3-1.5c0.1-0.1,0.3-0.2,0.6-0.2l0.8,0c0.2,0,0.3,0.1,0.3,0.1
	c0.1,0.1,0.1,0.1,0,0.2c-0.5,0.8-1.5,1.5-2.9,2c-1.4,0.5-3.1,0.8-5.1,0.8c-2.2,0-4.1-0.3-5.5-0.9c-1.5-0.6-2.3-1.4-2.6-2.5
	c-0.1-0.4-0.2-0.8-0.3-1.4c0-0.5-0.1-1.1-0.1-1.6c0-1.4,0.1-2.3,0.2-2.9c0.2-1,1.1-1.9,2.6-2.5c1.5-0.6,3.3-1,5.6-1
	c2.4,0,4.3,0.3,5.8,1c1.5,0.7,2.3,1.5,2.5,2.6c0.1,0.7,0.2,1.6,0.2,2.8c0,0.2-0.2,0.2-0.5,0.2H88.5c-0.1,0-0.2,0-0.2,0.1
	c0,1.2,0,1.9,0.1,2.4c0.2,0.8,0.8,1.5,2,2c1.2,0.5,2.6,0.8,4.4,0.8C96.3,24.3,97.6,24.1,98.7,23.7z M90.4,14c-1.1,0.5-1.8,1.2-2,2
	c-0.1,0.4-0.1,1.1-0.1,2.1c0,0.1,0.1,0.1,0.2,0.1H101c0.1,0,0.2,0,0.2-0.1c0-0.8-0.1-1.5-0.2-2.1c-0.2-0.8-0.8-1.5-2-2
	c-1.2-0.5-2.6-0.8-4.4-0.8C92.9,13.2,91.5,13.5,90.4,14z"/>
<path class="st0" d="M108.7,10.1c-0.6-0.3-0.9-0.7-0.9-1.1c0-0.5,0.3-0.8,0.9-1.1c0.6-0.3,1.4-0.4,2.3-0.4c0.9,0,1.7,0.1,2.3,0.4
	c0.6,0.3,0.9,0.7,0.9,1.1c0,0.5-0.3,0.8-0.9,1.1c-0.6,0.3-1.4,0.4-2.3,0.4C110.1,10.5,109.3,10.4,108.7,10.1z M108.6,24.7V12.6
	c0-0.2,0.2-0.2,0.5-0.2h3.8c0.3,0,0.5,0.1,0.5,0.2v12.1c0,0.2-0.2,0.2-0.5,0.2h-3.8C108.7,25,108.6,24.9,108.6,24.7z"/>
<path class="st0" d="M145.6,13.3c1.3,0.7,1.9,1.8,1.9,3.1v8.3c0,0.2-0.2,0.2-0.5,0.2h-3.8c-0.3,0-0.5-0.1-0.5-0.2v-8
	c0-0.8-0.4-1.4-1.1-1.8s-1.8-0.7-3.1-0.7s-2.4,0.2-3.2,0.7c-0.8,0.4-1.2,1-1.2,1.8v8c0,0.2-0.2,0.2-0.5,0.2h-3.8
	c-0.3,0-0.5-0.1-0.5-0.2v-8c0-0.8-0.4-1.4-1.2-1.8c-0.8-0.4-1.8-0.7-3.1-0.7c-1.3,0-2.4,0.2-3.2,0.7c-0.8,0.4-1.2,1-1.2,1.8v8
	c0,0.2-0.2,0.2-0.5,0.2h-3.8c-0.3,0-0.5-0.1-0.5-0.2V12.6c0-0.2,0.2-0.2,0.5-0.2h3.8c0.3,0,0.5,0.1,0.5,0.2v0.7c0,0,0,0.1,0.1,0.1
	c0.1,0,0.1,0,0.2,0c1.4-0.8,3.3-1.2,5.8-1.2c1.5,0,2.8,0.1,3.8,0.4c1.1,0.3,1.9,0.7,2.5,1.3c0.1,0.1,0.2,0.1,0.3,0
	c0.7-0.6,1.7-1,2.9-1.3c1.2-0.3,2.5-0.4,3.8-0.4C142.5,12.2,144.3,12.6,145.6,13.3z"/>
<path class="st0" d="M165.6,12.4h3.8c0.3,0,0.5,0.1,0.5,0.2v11.8c0,3.7-4,5.5-12,5.5c-0.7,0-1.2,0-1.6,0c-0.3,0-0.5-0.1-0.5-0.3
	l0.1-1.7c0-0.1,0.1-0.1,0.2-0.2c0.1,0,0.2-0.1,0.4,0c3.2,0.1,5.4-0.2,6.7-0.7c1.3-0.5,2-1.5,2-2.8v-0.5c0,0,0-0.1-0.1-0.1
	c-0.1,0-0.1,0-0.2,0c-1.3,0.8-3.2,1.2-5.5,1.2c-2.2,0-4-0.3-5.5-1c-1.5-0.6-2.4-1.5-2.8-2.7c-0.2-0.5-0.3-1.4-0.3-2.7
	c0-1.4,0.1-2.3,0.4-2.9c0.3-1.1,1.2-2,2.6-2.6c1.4-0.7,3.2-1,5.4-1c2.4,0,4.3,0.4,5.7,1.2c0.1,0,0.1,0,0.2,0c0.1,0,0.1,0,0.1-0.1
	v-0.7C165.1,12.5,165.3,12.4,165.6,12.4z M165.1,18.6c0-0.9-0.1-1.7-0.2-2.3c-0.1-0.6-0.6-1.1-1.4-1.5c-0.8-0.4-1.8-0.6-3.1-0.6
	c-1.2,0-2.2,0.2-3.1,0.6c-0.8,0.4-1.3,0.9-1.5,1.5c-0.2,0.6-0.3,1.4-0.3,2.3c0,0.9,0.1,1.6,0.3,2.3c0.2,0.6,0.7,1.1,1.5,1.5
	c0.8,0.4,1.9,0.6,3.1,0.6c1.2,0,2.3-0.2,3.1-0.6c0.8-0.4,1.3-0.9,1.4-1.5C165.1,20.1,165.1,19.3,165.1,18.6z"/>
</svg>
